<svg width="378" height="378" viewBox="0 0 378 378" fill="none" xmlns="http://www.w3.org/2000/svg">
<g clip-path="url(#clip0_927_37)">
<g filter="url(#filter0_i_927_37)">
<rect width="378" height="378" rx="83" fill="url(#paint0_linear_927_37)"/>
</g>
<rect x="114" y="125" width="37" height="60" rx="18.5" fill="#0C2E82"/>
<rect x="226" y="125" width="37" height="60" rx="18.5" fill="#082B7E"/>
<path d="M104 225C104 225 112.5 233.838 118.5 238.5C124.5 243.162 130 247 136.5 250.5C143 254 162.5 262.5 190 262.5C217.5 262.5 239.5 250.5 239.5 250.5C239.5 250.5 253.5 242.5 258.5 238.5C263.5 234.5 274.5 225 274.5 225" stroke="#092D7E" stroke-width="21" stroke-linecap="round"/>
</g>
<defs>
<filter id="filter0_i_927_37" x="0" y="-5" width="378" height="383" filterUnits="userSpaceOnUse" color-interpolation-filters="sRGB">
<feFlood flood-opacity="0" result="BackgroundImageFix"/>
<feBlend mode="normal" in="SourceGraphic" in2="BackgroundImageFix" result="shape"/>
<feColorMatrix in="SourceAlpha" type="matrix" values="0 0 0 0 0 0 0 0 0 0 0 0 0 0 0 0 0 0 127 0" result="hardAlpha"/>
<feMorphology radius="6" operator="erode" in="SourceAlpha" result="effect1_innerShadow_927_37"/>
<feOffset dy="-5"/>
<feGaussianBlur stdDeviation="6"/>
<feComposite in2="hardAlpha" operator="arithmetic" k2="-1" k3="1"/>
<feColorMatrix type="matrix" values="0 0 0 0 0 0 0 0 0 0 0 0 0 0 0 0 0 0 0.25 0"/>
<feBlend mode="normal" in2="shape" result="effect1_innerShadow_927_37"/>
</filter>
<linearGradient id="paint0_linear_927_37" x1="189" y1="0" x2="189" y2="378" gradientUnits="userSpaceOnUse">
<stop stop-color="#83F2EA"/>
<stop offset="1" stop-color="#3CC7E8"/>
</linearGradient>
<clipPath id="clip0_927_37">
<rect width="378" height="378" fill="white"/>
</clipPath>
</defs>
</svg>
